<?xml version="1.0" encoding="UTF-8"?>
<svg width="56px" height="56px" viewBox="0 0 56 56" version="1.1" xmlns="http://www.w3.org/2000/svg"
>
    <!-- Generator: Sketch 54.1 (76490) - https://sketchapp.com -->
    <title>competitor</title>
    <desc>Created with Sketch.</desc>
    <g id="competitor" stroke="none" stroke-width="1" fill="none" fill-rule="evenodd">
        <g id="noun_Handshake_1344010" transform="translate(6.000000, 12.000000)" fill="#fff" fill-rule="nonzero">
            <g id="Group">
                <path d="M26.092209,0.195933443 L21.7376775,2.24181443 L25.8473765,3.39369836 C27.2962965,2.78314967 28.951945,2.55107852 30.4292505,2.44812393 C28.772205,1.61566377 27.375953,0.236766885 26.092209,0.195933443 L26.092209,0.195933443 Z M14.9348155,3.4968477 C16.0652415,3.93375689 17.3976275,4.51343705 18.1351335,5.35361705 C18.344073,5.57106541 18.320786,5.96145541 18.0874485,6.15341262 C17.8540945,6.34536443 17.4591065,6.29903459 17.278239,6.05849705 C16.3353575,5.29753328 15.4606815,4.8293823 14.5151215,4.45962 C13.7670995,5.32200197 13.435862,6.22954525 14.060431,7.43388295 C15.1727565,7.98027098 16.293739,8.49472475 16.9809365,9.17029967 C17.2246745,9.36339295 17.246856,9.77017475 17.0255415,9.98777459 C16.8041995,10.2053744 16.390418,10.1835674 16.194002,9.94390082 C15.7735435,9.53055148 14.688069,8.97262967 13.588278,8.43098066 C13.0889495,8.95478262 12.88529,9.69012541 13.0811285,10.6487808 C14.159398,10.8312492 15.1610855,11.7834236 15.8616755,12.4711652 C16.105408,12.6642585 16.127595,13.0710403 15.9062805,13.2886348 C15.6849385,13.50624 15.271157,13.4844275 15.0747465,13.244761 C14.245858,12.4966239 13.615481,12.0143479 12.8362685,11.6114936 C12.01761,12.5968303 11.891913,13.7433369 14.3402435,16.1502541 C17.697955,18.9009934 21.0556665,20.5514803 22.7345195,20.5514803 C25.4698895,22.642977 27.709209,24.4234623 29.992072,26.4828246 L37.4419925,18.5399951 C36.1247865,17.5633033 35.00321,16.8839902 34.1717255,15.7032393 C32.4714335,16.3536639 30.5778385,16.5286721 29.624826,15.4453525 C29.21974,14.853273 29.434625,14.0501936 29.694775,13.6057972 C28.3101115,13.7065338 26.751109,13.4591257 26.6518505,11.7490333 C26.6518505,11.266979 26.879798,10.8439731 27.19398,10.511187 C25.9417125,10.383212 25.0173605,9.85413 24.9729975,8.44811902 C24.9729975,7.85981016 25.3483945,7.40506475 25.812424,7.07273311 C24.9429345,6.78677459 24.4595395,6.15949328 24.413378,5.14719934 C24.413378,4.58065426 24.76078,4.13560869 25.20034,3.80620377 L18.2575745,1.84628508 C16.746323,1.53153 15.154161,2.3456941 14.9348155,3.49679361 L14.9348155,3.4968477 Z M31.688393,2.94669984 C29.4499205,2.94669984 24.9729755,3.4968477 24.9729755,5.14730754 C24.9451455,6.52180623 26.16097,6.81637721 28.2432425,6.69461262 C26.758424,7.03476148 25.5325895,7.58660262 25.5325895,8.44822721 C25.5014595,9.98730934 27.0272915,10.1621985 29.589824,9.92676246 C28.2742185,10.2578931 27.211448,10.826943 27.211448,11.7491415 C27.211448,13.1668052 28.874978,13.3638152 32.178058,12.6947159 C30.696039,13.2386316 29.601583,13.8468866 30.00954,15.0500611 C31.1287735,16.1503623 32.807632,15.610623 35.0461045,14.8437516 C34.9540345,13.7043428 34.7175675,12.6422189 33.9268985,12.0930448 C34.0775215,11.5649041 34.461295,10.4068475 32.8076595,9.54856082 C33.116633,8.85490623 33.3630275,7.40987951 32.24804,6.26483361 L32.24804,6.24768443 C32.25673,6.26126311 32.24804,6.24768443 32.24804,6.24768443 C32.872939,4.82974475 32.47816,3.75342 31.688393,2.94671607 L31.688393,2.94669984 Z M12.1542135,14.3451757 L7.1526235,18.2478098 L14.322737,26.1906393 C16.425585,24.3164557 18.5133905,22.6651574 21.00318,20.7578656 C18.3916425,19.8624836 16.015989,18.2857869 13.99046,16.5801738 C13.3337435,15.8651557 12.5881855,15.1245925 12.1542135,14.3451757 L12.1542135,14.3451757 Z M6.278217,18.9355082 L0,23.8525082 L7.8346565,32.6549607 C9.934826,30.3609197 11.7389305,28.5470557 13.500795,26.9299475 L6.278217,18.9355082 Z M38.316377,19.2449508 L30.813992,27.2393902 C32.4727535,28.7811934 34.1933845,30.5009262 36.1653435,32.6549607 L44,23.8525082 L38.316377,19.2449508 Z"
                      id="Shape"></path>
            </g>
        </g>
    </g>
</svg>