<?xml version="1.0" encoding="UTF-8"?>
<svg width="56px" height="56px" viewBox="0 0 56 56" version="1.1" xmlns="http://www.w3.org/2000/svg"
>
    <!-- Generator: Sketch 54.1 (76490) - https://sketchapp.com -->
    <title>configuration</title>
    <desc>Created with Sketch.</desc>
    <g id="configuration" stroke="none" stroke-width="1" fill="none" fill-rule="evenodd">
        <g id="noun_Sliders_81593" transform="translate(12.000000, 12.000000)" fill="#fff" fill-rule="nonzero">
            <g id="Group" transform="translate(3.000000, 0.000000)">
                <path d="M2.66643243,1.20816667 C2.66643243,0.5555 2.1402973,0.0267666667 1.49083784,0.0267666667 C0.841378378,0.0267666667 0.315243243,0.5555 0.315243243,1.20816667 L0.315243243,11.3182667 L2.66606757,11.3182667 L2.66643243,1.20816667 Z"
                      id="Path"></path>
                <path d="M0.315243243,31.8116333 C0.315243243,32.4643 0.841378378,32.9930333 1.49083784,32.9930333 C2.1402973,32.9930333 2.66643243,32.4643 2.66643243,31.8116333 L2.66643243,14.5497 L0.315608108,14.5497 L0.315243243,31.8116333 Z"
                      id="Path"></path>
                <path d="M12.3583378,31.8116333 C12.3583378,32.4643 12.884473,32.9930333 13.5339324,32.9930333 C14.183027,32.9930333 14.709527,32.4643 14.709527,31.8116333 L14.709527,20.0449333 L12.3587027,20.0449333 L12.3583378,31.8116333 Z"
                      id="Path"></path>
                <path d="M14.709527,1.20816667 C14.709527,0.5555 14.1833919,0.0267666667 13.5339324,0.0267666667 C12.884473,0.0267666667 12.3583378,0.5555 12.3583378,1.20816667 L12.3583378,16.8131333 L14.7091622,16.8131333 L14.709527,1.20816667 Z"
                      id="Path"></path>
                <path d="M26.7391216,1.20816667 C26.7391216,0.5555 26.2129865,0.0267666667 25.563527,0.0267666667 C24.9140676,0.0267666667 24.3879324,0.5555 24.3879324,1.20816667 L24.3879324,3.9259 L26.7387568,3.9259 L26.7391216,1.20816667 Z"
                      id="Path"></path>
                <path d="M24.3882973,31.8116333 C24.3882973,32.4643 24.9144324,32.9930333 25.5638919,32.9930333 C26.2133514,32.9930333 26.7394865,32.4643 26.7394865,31.8116333 L26.7394865,7.1577 L24.3886622,7.1577 L24.3882973,31.8116333 Z"
                      id="Path"></path>
            </g>
            <path d="M0,11 L0,14 L9,14 L9,11 L0,11 Z M8.46761091,13.4521594 L4.5916684,13.4521594 L4.5916684,11.5599222 L8.46761091,11.5599222 L8.46761091,13.4521594 Z"
                  id="Shape"></path>
            <path d="M12,17 L12,20 L21,20 L21,17 L12,17 Z M20.4957301,19.4464038 L16.6194126,19.4464038 L16.6194126,17.5544293 L20.4957301,17.5544293 L20.4957301,19.4464038 Z"
                  id="Shape"></path>
            <path d="M24,4 L24,7 L33,7 L33,4 L24,4 Z M32.4916059,6.44591029 L28.6156634,6.44591029 L28.6156634,4.55408971 L32.4916059,4.55408971 L32.4916059,6.44591029 Z"
                  id="Shape"></path>
        </g>
    </g>
</svg>