<?xml version="1.0" encoding="UTF-8"?>
<svg width="56px" height="56px" viewBox="0 0 56 56" version="1.1" xmlns="http://www.w3.org/2000/svg"
>
    <!-- Generator: Sketch 54.1 (76490) - https://sketchapp.com -->
    <title>demo</title>
    <desc>Created with Sketch.</desc>
    <g id="demo" stroke="none" stroke-width="1" fill="none" fill-rule="evenodd">
        <g id="noun_demo_1626811" transform="translate(12.000000, 14.000000)" fill="#fff" fill-rule="nonzero">
            <path d="M29.9591837,0 L9.04081633,0 C7.91839128,0 7,0.899900081 7,2 L7,7.61352533 C7.6781111,7.2260751 8.46385115,6.99999992 9.30390199,6.99999992 C11.835739,6.99999992 13.8957387,9.01854986 13.8957387,11.4995002 C13.8957387,12.3154249 13.669643,13.0791006 13.2806363,13.7397499 C13.9330858,13.9887752 14.5542839,14.307125 15.0703307,14.7070255 C15.7467077,15.231451 16.5439016,16.335926 17.2940034,17.5165996 C17.4297949,17.7304745 18.1517342,17.5878753 18.1517342,17.5878753 L18.8624999,16.6928749 C19.4431883,16.0361252 20.2269373,15.6748009 21.0692341,15.6748009 C21.7794627,15.6748009 22.4518614,15.9326 22.9628051,16.40135 C23.6825236,17.0620003 23.956197,18.0510254 23.7811725,19 L29.9591837,19 C31.0816058,19 32,18.1000996 32,17 L32,2 C32,0.899900081 31.0816058,0 29.9591837,0 Z"
                  id="Path"></path>
            <g id="Group" transform="translate(6.000000, 8.000000)">
                <path d="M3.3868645,6.27610333 C1.78973021,6.27610333 0.490312779,4.97656528 0.490312779,3.37906911 C0.490312779,1.78205544 1.78973021,0.482999879 3.3868645,0.482999879 C4.98397485,0.482999879 6.28341623,1.78205544 6.28341623,3.37906911 C6.28341623,4.97656525 4.98397485,6.27610333 3.3868645,6.27610333 Z"
                      id="Path"></path>
                <path d="M3.3868645,0.9657585 C4.71785394,0.9657585 5.80065761,2.0484176 5.80065761,3.37906911 C5.80065761,4.71020311 4.71785394,5.79334471 3.3868645,5.79334471 C2.0558502,5.79334471 0.9730714,4.71020311 0.9730714,3.37906911 C0.9730714,2.04841758 2.0558502,0.9657585 3.3868645,0.9657585 L3.3868645,0.9657585 Z M3.3868645,0.000241258621 C1.52112317,0.000241258621 0.00755415862,1.51262797 0.00755415862,3.37906911 C0.00755415862,5.24599274 1.52112317,6.75886195 3.3868645,6.75886195 C5.25352296,6.75886195 6.76617485,5.24599274 6.76617485,3.37906911 C6.76617485,1.51262797 5.25352293,0.000241258621 3.3868645,0.000241258621 L3.3868645,0.000241258621 Z"
                      id="Shape"></path>
            </g>
            <path d="M22.4599023,17.5176083 C22.1490025,17.2358127 21.7273772,17.075676 21.2879278,17.075676 C20.7980519,17.075676 20.2859534,17.2748015 19.8808019,17.7268699 L17.8639766,20.2390365 C17.6310511,19.8668095 15.872027,16.7603573 14.7885258,15.9313195 C14.3078013,15.5635673 13.6916007,15.2692662 13.034001,15.0444047 C12.2124752,15.8906866 11.0495005,16.4230779 9.75777496,16.4230779 C8.44379925,16.4230779 7.26324928,15.8720401 6.43989909,15 C4.9498984,15.5425478 3.62287332,16.57163 2.7152729,18.353732 C2.71162295,18.3612791 1.15962257,22.1404023 0.177922207,24.5302346 C-0.256402896,25.5869627 0.131772193,26.7608731 1.04487244,27.1520143 C1.25019845,27.2398604 1.46649758,27.281678 1.68402265,27.281678 C2.43342289,27.281678 3.19624812,26.7863657 3.56879825,25.9819014 L4.40789837,24.0431927 L4.39887327,27.0083965 C4.38472311,28.1081269 5.32074854,29 6.48945006,29 L12.9704005,29 C14.139101,29 15.0863765,28.0774105 15.0863765,26.938957 L15.0863765,23.1451767 L15.0863765,23.0086688 L15.1540015,23.1192008 L16.2206523,24.8670545 C16.570626,25.2038744 17.0077771,25.3684858 17.4490519,25.3684858 C17.9978764,25.3684858 18.5531763,25.1138766 18.9550281,24.6190477 L22.470904,20.153078 C23.2362793,19.2928422 23.1171539,18.1132963 22.4599023,17.5176083 Z"
                  id="Path"></path>
            <g id="Group" transform="translate(6.000000, 8.000000)">
                <path d="M3.3868645,6.27610333 C1.78973021,6.27610333 0.490312779,4.97656528 0.490312779,3.37906911 C0.490312779,1.78205544 1.78973021,0.482999879 3.3868645,0.482999879 C4.98397485,0.482999879 6.28341623,1.78205544 6.28341623,3.37906911 C6.28341623,4.97656525 4.98397485,6.27610333 3.3868645,6.27610333 Z"
                      id="Path"></path>
                <path d="M3.3868645,0.9657585 C4.71785394,0.9657585 5.80065761,2.0484176 5.80065761,3.37906911 C5.80065761,4.71020311 4.71785394,5.79334471 3.3868645,5.79334471 C2.0558502,5.79334471 0.9730714,4.71020311 0.9730714,3.37906911 C0.9730714,2.04841758 2.0558502,0.9657585 3.3868645,0.9657585 L3.3868645,0.9657585 Z M3.3868645,0.000241258621 C1.52112317,0.000241258621 0.00755415862,1.51262797 0.00755415862,3.37906911 C0.00755415862,5.24599274 1.52112317,6.75886195 3.3868645,6.75886195 C5.25352296,6.75886195 6.76617485,5.24599274 6.76617485,3.37906911 C6.76617485,1.51262797 5.25352293,0.000241258621 3.3868645,0.000241258621 L3.3868645,0.000241258621 Z"
                      id="Shape"></path>
            </g>
            <circle id="Oval" cx="9.5" cy="11.5" r="3.5"></circle>
        </g>
    </g>
</svg>