<?xml version="1.0" encoding="UTF-8"?>
<svg width="56px" height="56px" viewBox="0 0 56 56" version="1.1" xmlns="http://www.w3.org/2000/svg"
>
    <!-- Generator: Sketch 54.1 (76490) - https://sketchapp.com -->
    <title>settings</title>
    <desc>Created with Sketch.</desc>
    <g id="settings" stroke="none" stroke-width="1" fill="none" fill-rule="evenodd">
        <g id="noun_Settings_2513215" transform="translate(11.000000, 11.000000)" fill="#fff">
            <path d="M21.2413793,3.44755245 C22.0862069,3.68531469 22.8103448,3.92307692 23.5344828,4.27972028 L27.2758621,2.73426573 L30.1724138,5.23076923 L29.3275862,9.03496503 C29.8103448,9.74825175 30.1724138,10.4615385 30.5344828,11.1748252 L34.2758621,12.2447552 L35,16.048951 L31.862069,18.4265734 C31.7413793,19.2587413 31.6206897,19.972028 31.3793103,20.8041958 L33.5517241,24.1328671 L31.6206897,27.3426573 L27.637931,27.2237762 C27.0344828,27.8181818 26.4310345,28.2937063 25.8275862,28.7692308 L25.3448276,32.6923077 L21.6034483,34 L18.7068966,31.2657343 C18.3448276,31.2657343 17.862069,31.2657343 17.5,31.2657343 C17.137931,31.2657343 16.6551724,31.2657343 16.2931034,31.2657343 L13.3965517,34 L9.77586207,32.6923077 L9.17241379,28.7692308 C8.56896552,28.2937063 7.96551724,27.6993007 7.36206897,27.2237762 L3.37931034,27.4615385 L1.44827586,24.1328671 L3.62068966,20.8041958 C3.37931034,19.972028 3.25862069,19.2587413 3.13793103,18.4265734 L0,16.048951 L0.724137931,12.2447552 L4.46551724,11.1748252 C4.82758621,10.4615385 5.31034483,9.74825175 5.67241379,9.03496503 L4.82758621,5.23076923 L7.84482759,2.73426573 L11.4655172,4.27972028 C12.1896552,4.04195804 12.9137931,3.68531469 13.7586207,3.44755245 L15.5689655,0 L19.4310345,0 L21.2413793,3.44755245 Z M17.5,9.86713287 C21.4827586,9.86713287 24.7413793,13.0769231 24.7413793,17 C24.7413793,20.9230769 21.4827586,24.013986 17.5,24.013986 C13.5172414,24.013986 10.2586207,20.9230769 10.2586207,17 C10.2586207,13.0769231 13.5172414,9.86713287 17.5,9.86713287 Z"
                  id="Shape"></path>
        </g>
    </g>
</svg>