<?xml version="1.0" encoding="UTF-8"?>
<svg width="56px" height="56px" viewBox="0 0 56 56" version="1.1" xmlns="http://www.w3.org/2000/svg"
>
    <!-- Generator: Sketch 54.1 (76490) - https://sketchapp.com -->
    <title>source master</title>
    <desc>Created with Sketch.</desc>
    <g id="source-master" stroke="none" stroke-width="1" fill="none" fill-rule="evenodd">
        <g id="noun_Computer_433365" transform="translate(9.000000, 9.000000)" fill="#fff" fill-rule="nonzero">
            <g id="Group">
                <path d="M19.5,0.12086 C18.0563578,0.12086 16.9000052,1.27721 16.9,2.72086 C16.9000052,4.16451 18.0563578,5.32086 19.5,5.32086 C20.9436422,5.32086 22.0999948,4.16451 22.1,2.72086 C22.0999948,1.27721 20.9436422,0.12086 19.5,0.12086 Z M18.85,6.55484444 L18.85,17.02086 L20.15,17.02086 L20.15,6.55484444 C19.9375345,6.59124444 19.7221336,6.62339903 19.5,6.62339903 C19.2778664,6.62339903 19.0624655,6.59124444 18.85,6.55484444 Z M10.4,6.62339903 C8.9563578,6.62339903 7.8000052,7.77974903 7.8,9.22339903 C7.8000052,10.667049 8.9563578,11.8233989 10.4,11.8233989 C11.8436422,11.8233989 12.9999948,10.667049 13,9.22339903 C12.9999948,7.77974903 11.8436422,6.62339903 10.4,6.62339903 Z M28.6,6.62339903 C27.1563578,6.62339903 26.0000052,7.77974903 26,9.22339903 C26.0000052,10.667049 27.1563578,11.8233989 28.6,11.8233989 C30.0436422,11.8233989 31.1999948,10.667049 31.2,9.22339903 C31.1999948,7.77974903 30.0436422,6.62339903 28.6,6.62339903 Z M27.95,13.0548447 L27.95,13.0573836 L27.95,15.7335558 L24.7,15.7335558 L24.7,17.0233989 L26,17.0233989 L26,17.0081642 L29.25,17.0081642 L29.25,13.0548447 C29.0375345,13.0912447 28.8221336,13.1233989 28.6,13.1233989 C28.3778664,13.1233989 28.1624655,13.0912447 27.95,13.0548447 Z M9.75,13.0599225 L9.75,17.0132433 L13,17.0132433 L13,17.0259378 L14.3,17.0259378 L14.3,15.7360947 L11.05,15.7360947 L11.05,13.0599225 C10.8375345,13.0963225 10.6221336,13.1259378 10.4,13.1259378 C10.1778664,13.1259378 9.9624655,13.0963225 9.75,13.0599225 Z M2.6,13.1233989 C1.1563578,13.1233989 5.2e-06,14.2797489 0,15.7233989 C5.2e-06,17.1670489 1.1563578,18.3233989 2.6,18.3233989 C4.0436422,18.3233989 5.1999948,17.1670489 5.2,15.7233989 C5.1999948,14.2797489 4.0436422,13.1233989 2.6,13.1233989 Z M36.4,13.1233989 C34.9563578,13.1233989 33.8000052,14.2797489 33.8,15.7233989 C33.8000052,17.1670489 34.9563578,18.3233989 36.4,18.3233989 C37.8436422,18.3233989 38.9999948,17.1670489 39,15.7233989 C38.9999948,14.2797489 37.8436422,13.1233989 36.4,13.1233989 Z M8.53125,18.1608989 C8.1274076,18.1608989 7.8000416,18.4882389 7.8,18.8921489 L7.8,28.6421489 L31.2,28.6421489 L31.2,18.8921489 C31.1999597,18.4882389 30.8725924,18.1608989 30.46875,18.1608989 L8.53125,18.1608989 Z M1.95,19.5548447 L1.95,26.1233989 L6.5,26.1233989 L6.5,24.8233989 L3.25,24.8233989 L3.25,19.5548447 C3.0375202,19.5912447 2.8221492,19.6233989 2.6,19.6233989 C2.3778508,19.6233989 2.1624798,19.5912447 1.95,19.5548447 Z M35.75,19.5548447 L35.75,24.82086 L32.5,24.82086 L32.5,26.12086 L37.05,26.12086 L37.05,19.5548447 C36.8375345,19.5912447 36.6221336,19.62086 36.4,19.62086 C36.1778664,19.62086 35.9624655,19.5912447 35.75,19.5548447 Z M7.8,30.10211 L7.8,31.88961 L7.8,32.62086 L8.53125,32.62086 L30.46875,32.62086 L31.2,32.62086 L31.2,31.88961 L31.2,30.10211 L7.8,30.10211 Z M17.6617194,33.92086 C17.6617194,35.13363 17.6610954,35.8446 17.2199222,36.52086 L13.6677736,36.52086 C13.4333603,36.5175448 13.2153207,36.6407039 13.0971466,36.8431774 C12.9789724,37.0456508 12.9789724,37.2960692 13.0971466,37.4985426 C13.2153207,37.7010161 13.4333603,37.8241752 13.6677736,37.82086 L15.8285153,37.82086 L23.1638667,37.82086 L25.3246097,37.82086 C25.559023,37.8241752 25.7770626,37.7010161 25.8952367,37.4985426 C26.0134109,37.2960692 26.0134109,37.0456508 25.8952367,36.8431774 C25.7770626,36.6407039 25.559023,36.5175448 25.3246097,36.52086 L21.7724611,36.52086 C21.331284,35.8446 21.328125,35.13363 21.328125,33.92086 L17.6617194,33.92086 Z"
                      id="Shape"></path>
            </g>
        </g>
    </g>
</svg>