<?xml version="1.0" encoding="UTF-8"?>
<svg width="47px" height="37px" viewBox="0 0 47 37" version="1.1" xmlns="http://www.w3.org/2000/svg"
>
    <!-- Generator: Sketch 54.1 (76490) - https://sketchapp.com -->
    <title>live</title>
    <desc>Created with Sketch.</desc>
    <g id="live" stroke="none" stroke-width="1" fill="none" fill-rule="evenodd" fill-opacity="0.85">
        <path d="M24,24 C21.2689076,24 19,21.7731092 19,19 C19,16.2268908 21.2268908,14 24,14 C26.7731092,14 29,16.2268908 29,19 C29,21.7731092 26.7310924,24 24,24 Z M13.6502058,28.7183099 C13.8971193,28.4768612 13.8971193,28.0744467 13.6502058,27.7927565 C11.5514403,25.3380282 10.3580247,22.2394366 10.3580247,19.0201207 C10.3580247,15.7605634 11.5925926,12.5814889 13.8148148,10.1267606 C14.0617284,9.84507042 14.0617284,9.44265594 13.8148148,9.20120724 C13.691358,9.0804829 13.4855967,9 13.3209877,9 C13.1152263,9 12.9506173,9.0804829 12.8271605,9.24144869 C10.3580247,11.9376258 9,15.4386318 9,19.0603622 C9,22.6016097 10.3168724,26.0623742 12.7037037,28.7585513 C12.8271605,28.9195171 13.0329218,29 13.2386831,29 C13.3621399,28.9195171 13.526749,28.8390342 13.6502058,28.7183099 Z M35.3600924,28.8054185 C37.7177598,26.0806484 39,22.6645187 39,19.0857162 C39,15.4662455 37.6763972,11.9687794 35.2360047,9.24400926 C35.1119169,9.08133642 34.905104,9 34.6982911,9 C34.4914781,9 34.3260278,9.08133642 34.20194,9.20334105 C33.9537645,9.44735031 33.9124019,9.85403242 34.20194,10.1387099 C36.3941571,12.6194707 37.5936721,15.7915911 37.5936721,19.045048 C37.5936721,22.2578366 36.4355197,25.3892888 34.2846652,27.8293814 C34.0364897,28.1140589 34.0364897,28.520741 34.3260278,28.7647503 C34.4501155,28.8867549 34.6569285,28.9680913 34.8223788,28.9680913 C35.0291917,29.0494277 35.1946421,28.9680913 35.3600924,28.8054185 Z M31.5772372,25.7092652 C33.1449072,23.9233227 34,21.8051118 34,19.5623003 C34,17.2779553 33.0974021,15.0351438 31.4347217,13.2492013 C31.2922062,13.0830671 31.0546805,13 30.8171547,13 C30.5796289,13 30.3896083,13.0830671 30.2470929,13.2076677 C29.9620619,13.456869 29.9145568,13.8722045 30.1520825,14.1214058 C31.5772372,15.658147 32.3848248,17.6102236 32.3848248,19.5623003 C32.3848248,21.514377 31.6722475,23.341853 30.294598,24.8785942 C30.0570722,25.1277955 30.1045774,25.543131 30.3896083,25.7923323 C30.5321238,25.9169329 30.7696495,26 30.9596702,26 C31.1971959,26 31.4347217,25.8753994 31.5772372,25.7092652 Z M17.6013768,25.7539432 C17.8784058,25.5078864 17.9245773,25.0977918 17.6937198,24.851735 C16.3547464,23.3343849 15.6160024,21.488959 15.6160024,19.5615142 C15.6160024,17.5930599 16.4009179,15.6656151 17.8322343,14.1072555 C18.0630918,13.8611987 18.0630918,13.4511041 17.7860628,13.2050473 C17.6475483,13.0820189 17.4166908,13 17.2320048,13 C17.0011473,13 16.7702898,13.0820189 16.6317753,13.2460568 C14.9234299,15.0094637 14,17.2649842 14,19.5615142 C14,21.8170347 14.831087,23.9495268 16.4009179,25.7129338 C16.5394323,25.8769716 16.7702898,26 17.0011473,26 C17.2320048,25.9589905 17.4628623,25.8769716 17.6013768,25.7539432 Z"
              id="Shape" fill="#fff" fill-rule="nonzero"></path>
    </g>
</svg>